<?xml version="1.0" encoding="UTF-8"?>
<svg id="_图层_1" xmlns="http://www.w3.org/2000/svg" version="1.1" viewBox="0 0 1024 1024">
  <!-- Generator: Adobe Illustrator 30.6.0, SVG Export Plug-In . SVG Version: 2.1.4 Build 109)  -->
  <defs>
    <style>
      .st0 {
        stroke: #4080ff;
        stroke-width: 88px;
      }

      .st0, .st1, .st2, .st3 {
        fill: none;
      }

      .st0, .st2, .st3 {
        stroke-linecap: round;
        stroke-linejoin: round;
      }

      .st1 {
        stroke: #000;
        stroke-miterlimit: 10;
        stroke-width: 8px;
      }

      .st2 {
        stroke-width: 64px;
      }

      .st2, .st3 {
        stroke: #22c55e;
      }

      .st3 {
        stroke-width: 48px;
      }
    </style>
  </defs>
  <g id="_以太网">
    <path class="st2" d="M578,704l66-66h44c24.3,0,44-19.7,44-44v-198c0-24.3-19.7-44-44-44h-352c-24.3,0-44,19.7-44,44v198c0,24.3,19.7,44,44,44h44l66,66h132Z"/>
    <path class="st3" d="M380,444v40"/>
    <path class="st3" d="M468,444v40"/>
    <path class="st3" d="M556,444v40"/>
    <path class="st3" d="M644,444v40"/>
  </g>
  <path id="_盾牌" class="st0" d="M872,556.94c0,224.97-157.5,337.44-344.7,402.69-9.8,3.32-20.45,3.16-30.15-.45-187.65-64.79-345.15-177.26-345.15-402.23V242c0-24.85,20.15-44.99,45-44.99,90,0,202.49-53.99,280.8-122.38,19.7-16.83,48.7-16.83,68.4,0,78.75,68.84,190.8,122.38,280.8,122.38,24.85,0,45,20.15,45,44.99v314.95h0Z"/>
  <g id="_轮廓">
    <path class="st1" d="M512.86,1005.99c-10.34,0-20.68-1.79-30.48-5.36-113.21-39.14-198.15-88.78-259.65-151.76-76.13-77.95-114.73-176.17-114.73-291.92V242c0-49.07,39.93-88.99,89-88.99,73.11,0,176.67-45.86,251.85-111.52.12-.11.24-.21.36-.31,17.49-14.94,39.79-23.17,62.78-23.17s45.29,8.23,62.78,23.17c.13.11.25.22.38.33,76.3,66.7,177.51,111.51,251.84,111.51,49.07,0,89,39.92,89,88.99v314.94c0,115.69-38.57,213.92-114.64,291.95-61.41,63-146.32,112.81-259.57,152.28-.12.04-.25.08-.37.13-9.24,3.13-18.9,4.69-28.55,4.69h0ZM506.48,108c-42.96,37.48-93.68,69.85-146.69,93.62-57.47,25.77-113.76,39.4-162.79,39.4-.55,0-1,.44-1,.99v314.95c0,171.72,100.25,286.32,315.51,360.64.33.11.66.23.98.35.2.08.44.08.65.03,214.45-74.82,314.52-189.27,314.86-360.14V242c0-.55-.45-.99-1-.99-49.08,0-105.31-13.56-162.6-39.22-52.98-23.73-103.77-56.16-146.89-93.8-3.22-2.66-7.81-2.66-11.02,0h-.01Z"/>
    <path class="st1" d="M578,736h-132c-8.49,0-16.63-3.37-22.63-9.37l-56.63-56.63h-30.75c-41.91,0-76-34.09-76-76v-198c0-41.91,34.09-76,76-76h352c41.91,0,76,34.09,76,76v198c0,41.91-34.09,76-76,76h-30.75l-56.63,56.63c-6,6-14.14,9.37-22.63,9.37h.02ZM459.25,672h105.49l56.63-56.63c6-6,14.14-9.37,22.63-9.37h44c6.62,0,12-5.38,12-12v-198c0-6.62-5.38-12-12-12h-352c-6.62,0-12,5.38-12,12v198c0,6.62,5.38,12,12,12h44c8.49,0,16.63,3.37,22.63,9.37l56.63,56.63h-.01Z"/>
    <path class="st1" d="M380,508c-13.25,0-24-10.75-24-24v-40c0-13.25,10.75-24,24-24s24,10.75,24,24v40c0,13.25-10.75,24-24,24Z"/>
    <path class="st1" d="M468,508c-13.25,0-24-10.75-24-24v-40c0-13.25,10.75-24,24-24s24,10.75,24,24v40c0,13.25-10.75,24-24,24Z"/>
    <path class="st1" d="M556,508c-13.25,0-24-10.75-24-24v-40c0-13.25,10.75-24,24-24s24,10.75,24,24v40c0,13.25-10.75,24-24,24Z"/>
    <path class="st1" d="M644,508c-13.25,0-24-10.75-24-24v-40c0-13.25,10.75-24,24-24s24,10.75,24,24v40c0,13.25-10.75,24-24,24Z"/>
  </g>
</svg>